<?xml version="1.0" encoding="utf-8"?>
<!-- Generator: Adobe Illustrator 18.0.0, SVG Export Plug-In . SVG Version: 6.00 Build 0)  -->
<!DOCTYPE svg PUBLIC "-//W3C//DTD SVG 1.1//EN" "http://www.w3.org/Graphics/SVG/1.1/DTD/svg11.dtd">
<svg version="1.1"
	 id="svg2" inkscape:export-xdpi="90" inkscape:export-ydpi="90" inkscape:version="0.48.4 r9939" inkscape:export-filename="/home/pcon/Dropbox/Art/cthulhu.png.png" sodipodi:docname="cthulhu.svg" xmlns:svg="http://www.w3.org/2000/svg" xmlns:sodipodi="http://sodipodi.sourceforge.net/DTD/sodipodi-0.dtd" xmlns:dc="http://purl.org/dc/elements/1.1/" xmlns:cc="http://creativecommons.org/ns#" xmlns:rdf="http://www.w3.org/1999/02/22-rdf-syntax-ns#" xmlns:inkscape="http://www.inkscape.org/namespaces/inkscape"
	 xmlns="http://www.w3.org/2000/svg" xmlns:xlink="http://www.w3.org/1999/xlink" x="0px" y="0px" viewBox="0 0 540 540"
	 enable-background="new 0 0 540 540" xml:space="preserve">
<sodipodi:namedview  inkscape:window-x="0" inkscape:window-width="1920" inkscape:window-height="1059" inkscape:window-maximized="1" inkscape:window-y="0" inkscape:pageshadow="2" inkscape:guide-bbox="true" inkscape:snap-global="false" inkscape:current-layer="layer2" inkscape:pageopacity="0.0" inkscape:snap-nodes="true" inkscape:document-units="px" pagecolor="#ffffff" id="base" bordercolor="#666666" borderopacity="1.0" inkscape:zoom="0.98994949" inkscape:cx="-16.708253" showgrid="false" inkscape:cy="177.91599" units="in" showguides="true">
	</sodipodi:namedview>
<g id="layer2" inkscape:label="Layer" inkscape:groupmode="layer">
	<g id="g3065">
		<path id="rect3067" sodipodi:nodetypes="sssssssccsssssssaass" inkscape:connector-curvature="0" fill="#FFFFFF" d="M261.9,54.1
			c-1.3,0-2.6,0.2-3.8,0.4c-18.7,3.3-36.5,11.6-53,21.1c-8.3,4.8-10.6,6.8-14.7,15.8c-8.9,19.7-16.2,44.5-21.4,61.2
			c-2.8,9-0.8,10.5,2,14.3c30,39.6,68.1,82.9,88.2,117.3c1.9,3.2,4.4,9.3,10.5-2.1c0.7-1.6,0.8-1.1,1.5,0.1
			c6.1,11.2,8.5,5.2,10.4,1.9c20.1-34.4,58.3-77.7,88.2-117.3c2.8-3.8,4.8-5.3,2-14.3c-5.2-16.7-12.5-41.5-21.4-61.2
			c-4.1-9-6.3-11.1-14.7-15.8c-16.5-9.5-34.3-17.8-53-21.1c-2.5-0.4-5.2-0.8-7.5,0.2c-1.4,0.6-2.5,2.2-4,2.8
			c-0.5,0.2-1.1,0.3-1.6,0.2c-1.6-0.4-2.6-2.3-4.1-3C264.5,54.2,263.2,54,261.9,54.1L261.9,54.1z"/>
		<path id="path3880" inkscape:connector-curvature="0" fill="#FFFFFF" d="M270,3.3C122.7,3.3,3.3,122.7,3.3,270
			S122.7,536.7,270,536.7S536.7,417.3,536.7,270S417.3,3.3,270,3.3z M270,24.8c135.4,0,245.2,109.8,245.2,245.2
			S405.4,515.2,270,515.2S24.8,405.4,24.8,270S134.6,24.8,270,24.8z"/>
		<path id="rect3091-4-1" fill="#FFFFFF" d="M153.9,75.6c-2.5,0.1-4.9,0.5-7.2,1.2c-6.4,2-16.6,12.1-17.2,21.2
			c-0.6,8.4,3.5,3.4,6,0.1c4.4-5.8,13.2-8.2,16.6-6.2c6.3,3.9,4.3,15.1,2.1,22.2c-1.6,5.1-7.6,11.2-15.2,17.6c4.3,4.2,8,9,11.3,14
			c10.3-9.3,19.4-19.6,23.9-32.3c3.2-9,2.8-20.1-1.8-28.5c-2.2-4.1-6.9-6.9-11.3-8.3C158.9,75.8,156.4,75.5,153.9,75.6z
			 M120.1,146.2c-10,7.3-19.5,14-24.4,18.9c-13.5,13.6-26.5,28.5-34.8,45.7c-9.4,19.4-10.9,57.9,12.2,77.3
			c19.2,16.1,47.2,31.6,115.7,22.1c54.5-8.4,55.1,30.1,54.3,69.8c-3.5,40.4-11.9,52.8-16.4,60c-16.7,18.3-27.6,17.9-34.7,9.9
			c-6.8,3.6-13.8,6.8-21.1,8.9c3.1,5.4,6.5,8.8,9.9,11.5c11.3,9,34.7,13.6,54.6-5.5c7.9-7.5,17.9-25,23.6-50
			c6.3-27.8,13.2-78.8,8.1-99.7c-8.3-33.5-10.3-33-29.2-41.1c-5-2.2-19.1-6.3-27.1-23.6c-3-6.5,4.2-13,13.5-4.9
			c3.8,3.3,3.7,1.5,2.3-1.2c-10-18.9-21.5-29.6-33.1-43.6c-2.4-2.9-4.5-2.4-2.7,2c3.1,7.8,7.7,19.3-1.5,33.6
			c-1.6,2.4-1.2,0.2-0.7-0.8c3.3-5.8,3.7-6.5,4.1-10.2c0.3-2.8-0.6-4.1-3.2-1.8c-2.3,2-17.5-3.8-16.6-24.2c0.2-4.3-0.9-4.2-3.7-2
			c-22.5,18-29.5,55.8-9,75.9c2.9,2.9,4.3,4.6,6.5-0.9c0.8-1.9,5.5-10.6,16.4-11c4.5-0.2,22.3,8.9-0.7,21.5
			c-18.3,10-79.9,12.1-98.1-15.4c-31.4-47.6,30-91.1,36.5-97.1c3-2.8,6.2-5.5,9.5-8.2C128.3,156.3,125.1,150.4,120.1,146.2z
			 M131.6,323.5c-0.6,0-1.2,0-1.8,0c-5.5,0.2-10.3,1.4-13.2,2.6c-9.6,4-8.6,19.3-7.9,23.5c1.4,8.2,9.3,13,9.8,1.9
			c0.2-4,2-10.1,4.9-11.5c1.8-0.9,10.4-2.9,18.9,4.8c1.6,1.5,3.2,3.3,4.7,5.3c4.3-4.3,8.7-8.5,13.2-12.5c-0.5-0.6-1-1.3-1.5-1.9
			C150.8,326.4,140.4,323.6,131.6,323.5z M173,361.9c-5.7,4.7-11,9.7-15.9,15.2c0,0,0,0,0,0c1.4,7.2,2.3,15.6,2.6,25.3
			c0.5,13.6,1.6,24.3,3.2,32.9c7-0.4,13.7-3.6,19.4-7.6c-0.3-1.2-0.5-2.4-0.8-3.7C179.5,413.1,181.5,386.9,173,361.9z"/>
		<path id="rect3961" fill="#FFFFFF" d="M210,311.7c-6.9-0.1-13.9,1.6-20.8,1.6c-3.7,0-5,1.1-4.8,3.9c0.1,1.1-0.3,3-0.8,3.4
			c-27,22.4-27.7,23.3-40.7,36.5c-9.7,9.8-16.5,19-20.9,27.8c7.2,3.1,14.9,4.8,22.7,5.5c2.6-4.3,5.8-8.3,8.7-11.8
			c13.5-16.7,32.6-28.9,50.6-42c6-4.4,10.2-7.2,24.8-8.9c5.8-0.7,2.6-3.8,0.9-5.9C223.5,313.9,216.8,311.8,210,311.7z M227.5,409.1
			c-10,0.1-23.3,4.9-42.2,19.1c-9.3,7-25.7,14.8-36.7,3.9c-5.6-5.5-8.6-10.9-9.8-16.2c-8.1-1.2-15.9-3.4-23.5-6.4
			c-0.3,12.3,3.9,23.4,10.8,33.5c17.2,25,43.4,16.9,67.3,3.7c11.5-6.4,21.1-20,36.3-16.4c3-6.3,5-13.1,6.6-19.9
			C233.8,409.5,230.8,409,227.5,409.1z M257.9,426.5c-2,6.6-4.5,13.1-7.5,19.4c3.8,7.1,5.2,16.1,0.3,23.5
			c-2.4,3.7-5.1,8.1-10.6,11.8c-8.2,5.5-3.3,6.3,6.6,5c11.8-1.6,15.6-14.6,17.4-19.4C269.1,452.8,267,435.5,257.9,426.5z"/>
		<path id="rect3961-9" inkscape:connector-curvature="0" fill="#FFFFFF" d="M330.8,311.7c-6.9,0.1-13.6,2.2-19.8,10
			c-1.7,2.1-4.8,5.2,0.9,5.9c14.6,1.7,18.8,4.6,24.8,8.9c10.2,7.4,20.7,14.6,30.3,22.4c2.7-7.4,6.4-14.4,11-20.8
			c-4.7-4.1-11-9.4-20.9-17.6c-0.4-0.4-0.9-2.3-0.8-3.4c0.3-2.8-1-3.9-4.8-3.9C344.7,313.3,337.6,311.5,330.8,311.7z M394.3,353.5
			c-4.3,7.2-6.6,15.3-8.2,23.6c0.4,0.5,0.8,1,1.2,1.5c11.2,13.8,25.3,33.3,4.8,53.6c-3.8,3.7-8.2,5.3-12.7,5.4c0,0,0,0,0,0
			c-1.6,6.9-3.8,13.6-7,19.9c15.8,4.1,30.9,2,42.1-14.4c15.7-22.8,17.8-51.1-16.7-86C396.4,355.6,395.5,354.7,394.3,353.5
			L394.3,353.5z M312.8,409c-14.7,0-22,10.4-29,16.5c-10,8.7-12.5,26.7-7.2,41.2c1.8,4.9,5.6,17.9,17.4,19.4c9.9,1.3,14.8,0.5,6.6-5
			c-5.5-3.7-8.2-8.1-10.6-11.8c-7.3-11.1-0.3-26.3,7.4-32.2c23.8-18.2,35.2,1.5,49.8,9.6c0.4,0.2,0.9,0.5,1.3,0.7
			c4.1-5.4,6.6-11.8,8.1-18.4c-0.4-0.3-0.8-0.5-1.1-0.8C336.3,413.8,322.9,409,312.8,409z"/>
		<path id="rect3982" fill="#FFFFFF" d="M110.1,120.8c-10.7,0.1-19.2,5.5-23.4,9.1c-15.8,13.7-16,24.5-16,33.8c0,12.3,5,7.3,6.5,0.7
			c2.6-11.9,8.7-23,26-24.9c32-3.5,44.7,48.7,15.8,90.8l-28.5,41.6c4.9,4.7,11.1,8.1,17.6,10.5c2-3.3,4.2-6.7,6.6-10
			c13.6-19,24-36,30.9-50.2c14.9-30.5,10.6-63.2,5.4-71.8C137,127.1,122.2,120.6,110.1,120.8z M77.1,293.9
			c-6.6,15.2-13.4,41.3-3,71.7c6.5,19,21.3,36.4,51.8,45.5c8.1,2.4,19.8,4.3,32.4,3.6c-0.5-7.5-0.7-15-1.2-22.4
			c-3.4,0.3-6.7,0.4-10,0.2c-49.3-2.9-67.4-41.6-50.5-87.1C89.7,302.4,83.2,298.5,77.1,293.9z M230.3,330.8c-0.6,0-1.3,0-2.1,0
			c-2.8,0.2-6,0.2-8.5,2c-1,0.8-4.4,1-3.8,5.2c3,21.5-14.1,39.2-35.3,48.2c1,7.9,1.5,15.9,1.9,23.8c7.9-2.7,15.6-6.8,22.6-12.7
			c11.7-9.7,26.6-24.3,30.6-26.3c2.6-1.2,4.8-4.1,4.5-12.1c-0.3-8.1-0.7-16.4-4.4-24.2C234.6,332.6,234.6,331,230.3,330.8z"/>
		<path id="rect3982-5" inkscape:connector-curvature="0" fill="#FFFFFF" d="M428.5,120.8c-7.3,0.2-15.5,3-23.9,10.3
			c5.1,4.4,10.6,8.2,16.1,12.2c4.6-3,10.1-4.4,16.2-3.8c17.3,1.9,23.3,13,25.9,24.9c1.4,6.6,6.5,11.6,6.5-0.7
			c0-9.4-0.3-20.1-16.1-33.8c-4.1-3.6-12.7-8.9-23.4-9.1C429.4,120.8,429,120.8,428.5,120.8z M390.5,147.9c-0.5,0.8-1.1,1.6-1.6,2.5
			c-5.2,8.6-9.4,41.3,5.4,71.8c6.9,14.2,17.3,31.1,30.9,50.2c34.2,47.7,31.5,95.5-4.1,113.2c3.1,6.6,5.2,13.6,5.9,20.8
			c21.8-9.7,33.2-24.6,38.7-40.7c14.5-42.3-4.2-76.2-9.6-84.1L421,230.2c-16-23.3-19.2-49.7-13.5-68
			C401.8,157.5,396.1,152.8,390.5,147.9z M309.7,330.8c-4.3,0.1-4.4,1.7-5.5,4.1c-3.7,7.8-4.1,16.1-4.4,24.2
			c-0.3,7.9,2,10.8,4.5,12.1c4,1.9,18.9,16.5,30.6,26.3c20.4,17.1,46.4,19.1,65.4,16.5c1-7.5-1.5-15.1-5.4-21.6
			c-0.7,0.1-1.4,0.1-2.1,0.2c-31.9,1.9-73.2-21.9-68.7-54.4c0.6-4.3-2.9-4.5-3.8-5.2c-2.5-1.9-5.6-1.9-8.5-2
			C311,330.8,310.3,330.8,309.7,330.8L309.7,330.8z"/>
		<path id="rect3091-4" inkscape:connector-curvature="0" fill="#FFFFFF" d="M387.3,75.3c-2.5-0.1-4.9,0.2-7.2,1
			c-4.5,1.4-9.1,4.2-11.3,8.3c-4.6,8.3-5,19.5-1.8,28.5c8.8,24.6,34.2,39.7,53.3,57.3c6.5,6,68,49.5,36.5,97.1
			c-1.2,1.8-2.6,3.5-4.1,5c4.2,6,8.1,12.2,11.3,18.7c1.5-1.1,2.9-2.3,4.2-3.4c23.1-19.4,21.6-57.9,12.1-77.3
			c-8.4-17.2-21.4-32-34.8-45.7c-12.2-12.3-53.7-36.1-58.5-51c-2.3-7.1-4.3-18.3,2.1-22.2c3.4-2.1,12.2,0.4,16.6,6.2
			c2.5,3.4,6.6,8.3,6.1-0.1c-0.6-9.1-10.8-19.2-17.2-21.2C392.2,75.8,389.7,75.4,387.3,75.3z M369.3,195.9c-0.8,0-1.1,1.1-1,3.5
			c0.8,20.4-14.4,26.2-16.7,24.1c-2.6-2.3-3.5-0.9-3.1,1.8c0.4,3.7,0.8,4.4,4.1,10.2c0.6,1,0.9,3.1-0.7,0.8
			c-9.3-14.3-4.6-25.8-1.5-33.6c1.8-4.5-0.3-4.9-2.7-2c-11.6,14-23.1,24.7-33.1,43.5c-1.4,2.7-1.5,4.5,2.3,1.2
			c9.3-8.1,16.5-1.6,13.5,4.9c-8,17.3-22,21.4-27.1,23.6c-18.8,8.1-20.9,7.5-29.2,41.1c-5.1,20.9,1.7,71.9,8,99.7
			c0.6,2.7,1.3,5.3,2,7.8c5.5-5.3,11-10.9,18.2-13.5c-1.7-7.6-3.1-17.1-4.2-29.1c-0.8-39.7-0.3-78.2,54.2-69.8
			c42.5,5.9,69.4,2.1,88.3-5.4c-2.7-6.8-6-13.4-9.7-19.8c-25.5,8.2-59.6,5.1-72.4-1.9c-22.9-12.6-5.1-21.6-0.6-21.4
			c10.9,0.4,15.6,9.1,16.4,10.9c2.2,5.5,3.6,3.7,6.5,0.9c20.5-20.1,13.5-57.9-9-75.9C370.8,196.5,369.9,195.9,369.3,195.9z
			 M408.5,323.3c-8.6,0.3-18.5,3.2-26,12.2c-12.6,14.9-17.5,33.4-19.8,49.9c6.3,2.4,12.8,3.9,19.5,4.7c2.2-23.6,8.4-38,16.7-45.6
			c8.5-7.7,17.1-5.7,18.8-4.8c2.9,1.5,4.8,7.5,4.9,11.5c0.4,11.1,8.3,6.4,9.7-1.9c0.7-4.2,1.8-19.5-7.9-23.5
			C421.1,324.5,415.2,323.1,408.5,323.3z M360.6,413.2c-0.2,4.3-0.5,8-1,10.7c-4.4,22.8-15.8,47.6-45,15.8c-1.2-1.9-2.7-4.2-4.3-7.3
			c-7.1,2.1-13.3,6.7-17.5,12.8c4.3,8.9,9,15.5,13.1,19.4c19.9,19.1,43.2,14.6,54.6,5.6c8.6-6.9,17.2-18.1,20.2-53.4
			C373.8,416.3,367.1,415.1,360.6,413.2z"/>
	</g>
</g>
</svg>
